<svg width="50" height="50" viewBox="0 0 50 50" fill="none" xmlns="http://www.w3.org/2000/svg">
<path fill-rule="evenodd" clip-rule="evenodd" d="M25.0013 8.33317C15.7966 8.33317 8.33464 15.7951 8.33464 24.9998C8.33464 34.2046 15.7966 41.6665 25.0013 41.6665C34.2061 41.6665 41.668 34.2046 41.668 24.9998C41.668 15.7951 34.206 8.33317 25.0013 8.33317ZM4.16797 24.9998C4.16797 13.4939 13.4954 4.1665 25.0013 4.1665C36.5072 4.1665 45.8346 13.4939 45.8346 24.9998C45.8346 36.5058 36.5072 45.8332 25.0013 45.8332C13.4954 45.8332 4.16797 36.5058 4.16797 24.9998ZM25.0013 23.7795L29.7782 28.5563C30.5918 29.3699 31.9109 29.3699 32.7244 28.5563C33.538 27.7427 33.538 26.4236 32.7244 25.61L26.4744 19.36C25.6609 18.5464 24.3418 18.5464 23.5282 19.36L17.2782 25.61C16.4646 26.4236 16.4646 27.7427 17.2782 28.5563C18.0918 29.3699 19.4109 29.3699 20.2244 28.5563L25.0013 23.7795Z" fill="#D93535"/>
</svg>
